<svg width="25" height="25" viewBox="0 0 25 25" fill="none" xmlns="http://www.w3.org/2000/svg">
<g clip-path="url(#clip0)">
<path d="M12.5 25.0001C19.4035 25.0001 24.9998 19.4037 24.9998 12.5003C24.9998 5.59684 19.4035 0.000495911 12.5 0.000495911C5.59659 0.000495911 0.000244141 5.59684 0.000244141 12.5003C0.000244141 19.4037 5.59659 25.0001 12.5 25.0001Z" fill="#CB2027"/>
<path d="M13.509 16.7388C12.564 16.6657 12.1669 16.1971 11.4258 15.7472C11.0185 17.8843 10.5207 19.9329 9.04631 21.0031C8.59064 17.7731 9.71432 15.347 10.2362 12.7719C9.34667 11.2745 10.3431 8.26067 12.2193 9.00333C14.5284 9.91645 10.2201 14.5709 13.1123 15.1523C16.1318 15.7592 17.3644 9.91311 15.4918 8.01156C12.7863 5.26619 7.61669 7.94917 8.2524 11.8793C8.40726 12.8401 9.40015 13.1317 8.64902 14.4575C6.91748 14.0741 6.40098 12.7084 6.46738 10.8877C6.57456 7.9075 9.14524 5.82079 11.7237 5.53201C14.9847 5.16703 18.0454 6.72945 18.4678 9.79679C18.9431 13.2588 16.9956 17.0079 13.509 16.7388Z" fill="#F1F2F2"/>
</g>
<defs>
<clipPath id="clip0">
<rect width="25" height="25" fill="white"/>
</clipPath>
</defs>
</svg>
