<svg width="25" height="25" viewBox="0 0 25 25" fill="none" xmlns="http://www.w3.org/2000/svg">
<g clip-path="url(#clip0)">
<path d="M12.5 25C19.4036 25 25 19.4036 25 12.5C25 5.59646 19.4036 1.90735e-05 12.5 1.90735e-05C5.59644 1.90735e-05 0 5.59646 0 12.5C0 19.4036 5.59644 25 12.5 25Z" fill="#4D76A1"/>
<path fill-rule="evenodd" clip-rule="evenodd" d="M12.0278 17.9824H13.0089C13.0089 17.9824 13.3053 17.9499 13.4566 17.7867C13.5959 17.637 13.5914 17.3558 13.5914 17.3558C13.5914 17.3558 13.5722 16.0394 14.1832 15.8455C14.7855 15.6545 15.5589 17.1178 16.3787 17.6805C16.9986 18.1063 17.4697 18.0129 17.4697 18.0129L19.6616 17.9824C19.6616 17.9824 20.8082 17.9117 20.2645 17.0102C20.22 16.9364 19.9479 16.3433 18.6348 15.1244C17.2604 13.8488 17.4445 14.0551 19.1001 11.8485C20.1084 10.5046 20.5114 9.68418 20.3855 9.33279C20.2654 8.99811 19.5239 9.08657 19.5239 9.08657L17.0559 9.10194C17.0559 9.10194 16.8729 9.07699 16.7372 9.1581C16.6047 9.23764 16.5193 9.42303 16.5193 9.42303C16.5193 9.42303 16.1287 10.463 15.6077 11.3473C14.5088 13.2135 14.0694 13.312 13.8898 13.1961C13.472 12.9261 13.5763 12.1112 13.5763 11.5323C13.5763 9.72385 13.8505 8.96981 13.0421 8.77462C12.7739 8.70977 12.5764 8.66699 11.8904 8.66008C11.0098 8.65095 10.2644 8.66276 9.84239 8.86954C9.56163 9.00702 9.34504 9.3134 9.47695 9.33101C9.64006 9.35284 10.0095 9.43061 10.2054 9.69733C10.4583 10.0414 10.4494 10.8141 10.4494 10.8141C10.4494 10.8141 10.5946 12.943 10.11 13.2075C9.77732 13.3889 9.32098 13.0185 8.34122 11.3255C7.83919 10.4583 7.46017 9.49968 7.46017 9.49968C7.46017 9.49968 7.38708 9.32053 7.25673 9.22472C7.09853 9.10863 6.87748 9.07164 6.87748 9.07164L4.53226 9.08701C4.53226 9.08701 4.1802 9.09682 4.05096 9.2499C3.93598 9.38604 4.04182 9.66769 4.04182 9.66769C4.04182 9.66769 5.87789 13.9633 7.95685 16.128C9.86311 18.1127 12.0278 17.9824 12.0278 17.9824Z" fill="white"/>
</g>
<defs>
<clipPath id="clip0">
<rect width="25" height="25" fill="white"/>
</clipPath>
</defs>
</svg>
